<svg width="54" height="19" viewBox="0 0 54 19" fill="none" xmlns="http://www.w3.org/2000/svg">
<path d="M9.08 18H13.28L9.92 11.28L7.04 10.32V10.2C7.04 10.2 11.96 9.36 11.96 5.52C11.96 2.88 10.28 1.2 5.72 1.2H0.68V18H4.64V10.32H5.24L9.08 18ZM4.64 2.04H5.12C6.8 2.04 7.76 3 7.76 5.76C7.76 8.52 6.8 9.48 5.12 9.48H4.64V2.04ZM25.8706 14.16C25.8706 9.84 18.7906 6.96 18.7906 3.48C18.7906 2.52 19.5106 1.8 20.7106 1.8C23.1106 1.8 23.5906 6.24 23.5906 6.24H23.8306L25.5106 2.64C25.5106 2.64 24.3106 0.839999 20.5906 0.839999C16.6306 0.839999 14.7106 2.76 14.7106 4.824C14.7106 9.12 21.7906 12 21.7906 15.48C21.7906 16.56 20.9506 17.4 19.6306 17.4C16.8706 17.4 15.9106 12 15.9106 12H15.6706L13.9906 16.56C13.9906 16.56 15.9106 18.36 19.7506 18.36C23.8306 18.36 25.8706 16.32 25.8706 14.16ZM33.5459 18.24L40.0259 1.2H37.9859L34.7459 12.24H34.6259L30.4259 1.2H26.3459L33.1859 18.24H33.5459ZM45.4213 18V12H45.7812C50.7013 12 53.2213 9.48 53.2213 6.36C53.2213 3.24 51.1813 1.2 46.7173 1.2H41.4613V18H45.4213ZM45.4213 2.04H45.9013C47.8213 2.04 49.0213 3.24 49.0213 6.6C49.0213 9.96 47.8213 11.16 46.0213 11.16H45.4213V2.04Z" fill="white"/>
</svg>
